<?xml version="1.0" encoding="UTF-8" standalone="no" ?>
<!DOCTYPE svg PUBLIC "-//W3C//DTD SVG 1.1//EN" "http://www.w3.org/Graphics/SVG/1.1/DTD/svg11.dtd">
<svg xmlns="http://www.w3.org/2000/svg" xmlns:xlink="http://www.w3.org/1999/xlink" version="1.1" width="500" height="500" viewBox="0 0 500 500" xml:space="preserve">
<desc>Created with Fabric.js 5.3.0</desc>
<defs>
</defs>
<g transform="matrix(0.87257282 0 0 1 251.6685210202 261.9680391866)" id="tSLy9XMxFkqruBGt__Oe_"  >
<path style="stroke: rgb(232,216,167); stroke-width: 0; stroke-dasharray: none; stroke-linecap: butt; stroke-dashoffset: 0; stroke-linejoin: miter; stroke-miterlimit: 4; fill: rgb(150,151,135); fill-rule: nonzero; opacity: 1;"  transform=" translate(0.000005, -0.000005)" d="M -114.57175 -170.46718 L 114.57174000000002 -170.46718 L 114.57174000000002 170.46719 L -114.57175 170.46719 z" stroke-linecap="round" />
</g>
<g transform="matrix(0.4368932205 0 0 0.4531707314 398.3592900852 147.1644630413)" id="OFQdtsNtfmx-97ViZ4VtN"  >
<path style="stroke: rgb(232,216,167); stroke-width: 0; stroke-dasharray: none; stroke-linecap: butt; stroke-dashoffset: 0; stroke-linejoin: miter; stroke-miterlimit: 4; fill: rgb(150,151,135); fill-rule: nonzero; opacity: 1;"  transform=" translate(0.000005, -0.000005)" d="M -114.57175 -170.46718 L 114.57174000000002 -170.46718 L 114.57174000000002 170.46719 L -114.57175 170.46719 z" stroke-linecap="round" />
</g>
<g transform="matrix(0.4368932205 0 0 0.4531707314 103.5056527478 150.9891730879)" id="wmcrKQU9LbfEe0PW8aTYL"  >
<path style="stroke: rgb(232,216,167); stroke-width: 0; stroke-dasharray: none; stroke-linecap: butt; stroke-dashoffset: 0; stroke-linejoin: miter; stroke-miterlimit: 4; fill: rgb(150,151,135); fill-rule: nonzero; opacity: 1;"  transform=" translate(0.000005, -0.000005)" d="M -114.57175 -170.46718 L 114.57174000000002 -170.46718 L 114.57174000000002 170.46719 L -114.57175 170.46719 z" stroke-linecap="round" />
</g>
<g transform="matrix(0.4368932245 0 0 0.3115497534 398.3592905351 322.9041734504)" id="1STvzLM9zHPTb9WiitHuT"  >
<path style="stroke: rgb(232,216,167); stroke-width: 0; stroke-dasharray: none; stroke-linecap: butt; stroke-dashoffset: 0; stroke-linejoin: miter; stroke-miterlimit: 4; fill: rgb(150,151,135); fill-rule: nonzero; opacity: 1;"  transform=" translate(0.000005, -0.000005)" d="M -114.57175 -170.46718 L 114.57174000000002 -170.46718 L 114.57174000000002 170.46719 L -114.57175 170.46719 z" stroke-linecap="round" />
</g>
<g transform="matrix(0.445031976 0 0 0.4053181062 102.5731813338 333.9562935122)" id="W_23JXb4JQAaVlx5CEOr6"  >
<path style="stroke: rgb(232,216,167); stroke-width: 0; stroke-dasharray: none; stroke-linecap: butt; stroke-dashoffset: 0; stroke-linejoin: miter; stroke-miterlimit: 4; fill: rgb(150,151,135); fill-rule: nonzero; opacity: 1;"  transform=" translate(0.000005, -0.000005)" d="M -114.57175 -170.46718 L 114.57174000000002 -170.46718 L 114.57174000000002 170.46719 L -114.57175 170.46719 z" stroke-linecap="round" />
</g>
<g transform="matrix(1 0 0 1 35.9305690965 133.4697077072)" id="5xwWuVmjseFg8CgBy7b20"  >
<path style="stroke: rgb(0,159,34); stroke-width: 0; stroke-dasharray: none; stroke-linecap: butt; stroke-dashoffset: 0; stroke-linejoin: miter; stroke-miterlimit: 4; fill: rgb(75,75,72); fill-rule: nonzero; opacity: 1;"  transform=" translate(-17.519465, -17.519465)" d="M 0 7.43288 C 0 3.3278099999999995 3.32781 0 7.43288 0 L 27.60605 0 L 27.60605 0 C 31.71112 0 35.03893 3.32781 35.03893 7.43288 L 35.03893 27.60605 L 35.03893 27.60605 C 35.03893 31.71112 31.71112 35.03893 27.60605 35.03893 L 7.432880000000001 35.03893 L 7.432880000000001 35.03893 C 3.3278100000000004 35.03893 8.881784197001252e-16 31.71112 8.881784197001252e-16 27.60605 z" stroke-linecap="round" />
</g>
<g transform="matrix(1.5432288866 0 0 1.5432288866 398.3592905351 403.0497300972)" id="kaOgQsvYwwzk3eT5vg-Us"  >
<path style="stroke: rgb(0,159,34); stroke-width: 0; stroke-dasharray: none; stroke-linecap: butt; stroke-dashoffset: 0; stroke-linejoin: miter; stroke-miterlimit: 4; fill: rgb(75,75,72); fill-rule: nonzero; opacity: 1;"  transform=" translate(0.000005, 0.000005)" d="M -17.51947 -10.08659 C -17.51947 -14.191659999999999 -14.191659999999999 -17.51947 -10.086589999999998 -17.51947 L 10.086580000000001 -17.51947 L 10.086580000000001 -17.51947 C 14.191650000000003 -17.51947 17.519460000000002 -14.191659999999999 17.519460000000002 -10.086589999999998 L 17.519460000000002 10.086580000000001 L 17.519460000000002 10.086580000000001 C 17.519460000000002 14.191650000000003 14.191650000000003 17.519460000000002 10.086580000000001 17.519460000000002 L -10.086589999999998 17.519460000000002 L -10.086589999999998 17.519460000000002 C -14.191659999999999 17.519460000000002 -17.51947 14.191650000000003 -17.51947 10.086580000000001 z" stroke-linecap="round" />
</g>
<g transform="matrix(1 0 0 1 465.9343746418 133.4697077072)" id="n30V9IABYFTFFnjwRVGzG"  >
<path style="stroke: rgb(0,159,34); stroke-width: 0; stroke-dasharray: none; stroke-linecap: butt; stroke-dashoffset: 0; stroke-linejoin: miter; stroke-miterlimit: 4; fill: rgb(75,75,72); fill-rule: nonzero; opacity: 1;"  transform=" translate(-17.519465, -17.519465)" d="M 0 7.43288 C 0 3.3278099999999995 3.32781 0 7.43288 0 L 27.60605 0 L 27.60605 0 C 31.71112 0 35.03893 3.32781 35.03893 7.43288 L 35.03893 27.60605 L 35.03893 27.60605 C 35.03893 31.71112 31.71112 35.03893 27.60605 35.03893 L 7.432880000000001 35.03893 L 7.432880000000001 35.03893 C 3.3278100000000004 35.03893 8.881784197001252e-16 31.71112 8.881784197001252e-16 27.60605 z" stroke-linecap="round" />
</g>
<g transform="matrix(1.3021021226 0 0 1.3021021226 103.5056527478 228.2399116056)" id="J0Kmx_XVPh-oSSYjuRHOb"  >
<path style="stroke: rgb(233,35,146); stroke-width: 0; stroke-dasharray: none; stroke-linecap: butt; stroke-dashoffset: 0; stroke-linejoin: miter; stroke-miterlimit: 4; fill: rgb(216,216,205); fill-rule: nonzero; opacity: 1;"  transform=" translate(0.000005, 0.000005)" d="M -13.62625 -7.84512 C -13.62625 -11.037949999999999 -11.03795 -13.626249999999999 -7.8451200000000005 -13.626249999999999 L 7.845109999999999 -13.626249999999999 L 7.845109999999999 -13.626249999999999 C 11.037939999999999 -13.626249999999999 13.62624 -11.037949999999999 13.62624 -7.845119999999999 L 13.62624 7.845110000000001 L 13.62624 7.845110000000001 C 13.62624 11.03794 11.037939999999999 13.626240000000001 7.845109999999999 13.626240000000001 L -7.8451200000000005 13.626240000000001 L -7.8451200000000005 13.626240000000001 C -11.03795 13.626240000000001 -13.62625 11.03794 -13.62625 7.845110000000001 z" stroke-linecap="round" />
</g>
<g transform="matrix(5.8860538992 0 0 1.3021021226 251.6685210202 430.0862745636)" id="foHsEEiFRcSR5YzivOA0U"  >
<path style="stroke: rgb(233,35,146); stroke-width: 0; stroke-dasharray: none; stroke-linecap: butt; stroke-dashoffset: 0; stroke-linejoin: miter; stroke-miterlimit: 4; fill: rgb(216,216,205); fill-rule: nonzero; opacity: 1;"  transform=" translate(0.000005, 0.000005)" d="M -13.62625 -7.84512 C -13.62625 -11.037949999999999 -13.05367 -13.626249999999999 -12.34736 -13.626249999999999 L 12.34735 -13.626249999999999 L 12.34735 -13.626249999999999 C 13.05366 -13.626249999999999 13.626240000000001 -11.037949999999999 13.626240000000001 -7.845119999999999 L 13.626240000000001 7.845110000000001 L 13.626240000000001 7.845110000000001 C 13.626240000000001 11.03794 13.05366 13.626240000000001 12.34735 13.626240000000001 L -12.34736 13.626240000000001 L -12.34736 13.626240000000001 C -13.05367 13.626240000000001 -13.62625 11.03794 -13.62625 7.845110000000001 z" stroke-linecap="round" />
</g>
<g transform="matrix(1.3021021226 0 0 1.3021021226 398.3592905351 224.4152019397)" id="e-RIgdoNcswqTBL4UAEzK"  >
<path style="stroke: rgb(233,35,146); stroke-width: 0; stroke-dasharray: none; stroke-linecap: butt; stroke-dashoffset: 0; stroke-linejoin: miter; stroke-miterlimit: 4; fill: rgb(216,216,205); fill-rule: nonzero; opacity: 1;"  transform=" translate(0.000005, 0.000005)" d="M -13.62625 -7.84512 C -13.62625 -11.037949999999999 -11.03795 -13.626249999999999 -7.8451200000000005 -13.626249999999999 L 7.845109999999999 -13.626249999999999 L 7.845109999999999 -13.626249999999999 C 11.037939999999999 -13.626249999999999 13.62624 -11.037949999999999 13.62624 -7.845119999999999 L 13.62624 7.845110000000001 L 13.62624 7.845110000000001 C 13.62624 11.03794 11.037939999999999 13.626240000000001 7.845109999999999 13.626240000000001 L -7.8451200000000005 13.626240000000001 L -7.8451200000000005 13.626240000000001 C -11.03795 13.626240000000001 -13.62625 11.03794 -13.62625 7.845110000000001 z" stroke-linecap="round" />
</g>
<g transform="matrix(1.3021021226 0 0 1.3021021226 398.3592905351 69.9137241429)" id="jHwbeoN3f2sLJ4Q8BiS4Q"  >
<path style="stroke: rgb(233,35,146); stroke-width: 0; stroke-dasharray: none; stroke-linecap: butt; stroke-dashoffset: 0; stroke-linejoin: miter; stroke-miterlimit: 4; fill: rgb(216,216,205); fill-rule: nonzero; opacity: 1;"  transform=" translate(0.000005, 0.000005)" d="M -13.62625 -7.84512 C -13.62625 -11.037949999999999 -11.03795 -13.626249999999999 -7.8451200000000005 -13.626249999999999 L 7.845109999999999 -13.626249999999999 L 7.845109999999999 -13.626249999999999 C 11.037939999999999 -13.626249999999999 13.62624 -11.037949999999999 13.62624 -7.845119999999999 L 13.62624 7.845110000000001 L 13.62624 7.845110000000001 C 13.62624 11.03794 11.037939999999999 13.626240000000001 7.845109999999999 13.626240000000001 L -7.8451200000000005 13.626240000000001 L -7.8451200000000005 13.626240000000001 C -11.03795 13.626240000000001 -13.62625 11.03794 -13.62625 7.845110000000001 z" stroke-linecap="round" />
</g>
<g transform="matrix(1.3021021226 0 0 1.3021021226 103.5056527478 69.9137241429)" id="AGk6cBH6UzDUyxTjGXr9m"  >
<path style="stroke: rgb(233,35,146); stroke-width: 0; stroke-dasharray: none; stroke-linecap: butt; stroke-dashoffset: 0; stroke-linejoin: miter; stroke-miterlimit: 4; fill: rgb(216,216,205); fill-rule: nonzero; opacity: 1;"  transform=" translate(0.000005, 0.000005)" d="M -13.62625 -7.84512 C -13.62625 -11.037949999999999 -11.03795 -13.626249999999999 -7.8451200000000005 -13.626249999999999 L 7.845109999999999 -13.626249999999999 L 7.845109999999999 -13.626249999999999 C 11.037939999999999 -13.626249999999999 13.62624 -11.037949999999999 13.62624 -7.845119999999999 L 13.62624 7.845110000000001 L 13.62624 7.845110000000001 C 13.62624 11.03794 11.037939999999999 13.626240000000001 7.845109999999999 13.626240000000001 L -7.8451200000000005 13.626240000000001 L -7.8451200000000005 13.626240000000001 C -11.03795 13.626240000000001 -13.62625 11.03794 -13.62625 7.845110000000001 z" stroke-linecap="round" />
</g>
</svg>