<?xml version="1.0" encoding="UTF-8" standalone="no" ?>
<!DOCTYPE svg PUBLIC "-//W3C//DTD SVG 1.1//EN" "http://www.w3.org/Graphics/SVG/1.1/DTD/svg11.dtd">
<svg xmlns="http://www.w3.org/2000/svg" xmlns:xlink="http://www.w3.org/1999/xlink" version="1.1" width="500" height="500" viewBox="0 0 500 500" xml:space="preserve">
<desc>Created with Fabric.js 5.3.0</desc>
<defs>
</defs>
<g transform="matrix(1 0 0 1 250 250)" id="uGGx0SCnTV190j4L64vG7"  >
<path style="stroke: rgb(114,7,124); stroke-width: 0; stroke-dasharray: none; stroke-linecap: butt; stroke-dashoffset: 0; stroke-linejoin: miter; stroke-miterlimit: 4; fill: rgb(150,151,135); fill-rule: nonzero; opacity: 1;"  transform=" translate(-85.65072, -225.25028)" d="M 0 0 L 171.30144 0 L 171.30144 450.50056 L 0 450.50056 z" stroke-linecap="round" />
</g>
<g transform="matrix(1 0 0 1 159.2341531663 349.5439377085)" id="xol14u-bt8JL5h8jitsMR"  >
<path style="stroke: rgb(0,159,34); stroke-width: 0; stroke-dasharray: none; stroke-linecap: butt; stroke-dashoffset: 0; stroke-linejoin: miter; stroke-miterlimit: 4; fill: rgb(75,75,72); fill-rule: nonzero; opacity: 1;"  transform=" translate(-17.519465, -17.519465)" d="M 0 7.43288 C 0 3.3278099999999995 3.32781 0 7.43288 0 L 27.60605 0 L 27.60605 0 C 31.71112 0 35.03893 3.32781 35.03893 7.43288 L 35.03893 27.60605 L 35.03893 27.60605 C 35.03893 31.71112 31.71112 35.03893 27.60605 35.03893 L 7.432880000000001 35.03893 L 7.432880000000001 35.03893 C 3.3278100000000004 35.03893 8.881784197001252e-16 31.71112 8.881784197001252e-16 27.60605 z" stroke-linecap="round" />
</g>
<g transform="matrix(1 0 0 0.9794437789 250 249.9999993309)" id="SQjZGOQ1o1XNHLkoacHpe"  >
<path style="stroke: rgb(191,94,132); stroke-width: 0; stroke-dasharray: none; stroke-linecap: butt; stroke-dashoffset: 0; stroke-linejoin: miter; stroke-miterlimit: 4; fill: rgb(75,75,72); fill-rule: nonzero; opacity: 1;"  transform=" translate(0, 0)" d="M -26.41824 -229.97775 L 26.41824 -229.97775 L 26.41824 229.97775 L -26.41824 229.97775 z" stroke-linecap="round" />
</g>
<g transform="matrix(1.3021021226 0 0 1.3021021226 159.904043502 51.7789203605)" id="C5x3tiRg9Us3joLfwMixH"  >
<path style="stroke: rgb(233,35,146); stroke-width: 0; stroke-dasharray: none; stroke-linecap: butt; stroke-dashoffset: 0; stroke-linejoin: miter; stroke-miterlimit: 4; fill: rgb(216,216,205); fill-rule: nonzero; opacity: 1;"  transform=" translate(0.000005, 0.000005)" d="M -13.62625 -7.84512 C -13.62625 -11.037949999999999 -11.03795 -13.626249999999999 -7.8451200000000005 -13.626249999999999 L 7.845109999999999 -13.626249999999999 L 7.845109999999999 -13.626249999999999 C 11.037939999999999 -13.626249999999999 13.62624 -11.037949999999999 13.62624 -7.845119999999999 L 13.62624 7.845110000000001 L 13.62624 7.845110000000001 C 13.62624 11.03794 11.037939999999999 13.626240000000001 7.845109999999999 13.626240000000001 L -7.8451200000000005 13.626240000000001 L -7.8451200000000005 13.626240000000001 C -11.03795 13.626240000000001 -13.62625 11.03794 -13.62625 7.845110000000001 z" stroke-linecap="round" />
</g>
<g transform="matrix(1.3021021226 0 0 1.3021021226 159.9040447961 228.0748046765)" id="jFkEV8PC3TVOSdJA-g68m"  >
<path style="stroke: rgb(233,35,146); stroke-width: 0; stroke-dasharray: none; stroke-linecap: butt; stroke-dashoffset: 0; stroke-linejoin: miter; stroke-miterlimit: 4; fill: rgb(216,216,205); fill-rule: nonzero; opacity: 1;"  transform=" translate(0.000005, 0.000005)" d="M -13.62625 -7.84512 C -13.62625 -11.037949999999999 -11.03795 -13.626249999999999 -7.8451200000000005 -13.626249999999999 L 7.845109999999999 -13.626249999999999 L 7.845109999999999 -13.626249999999999 C 11.037939999999999 -13.626249999999999 13.62624 -11.037949999999999 13.62624 -7.845119999999999 L 13.62624 7.845110000000001 L 13.62624 7.845110000000001 C 13.62624 11.03794 11.037939999999999 13.626240000000001 7.845109999999999 13.626240000000001 L -7.8451200000000005 13.626240000000001 L -7.8451200000000005 13.626240000000001 C -11.03795 13.626240000000001 -13.62625 11.03794 -13.62625 7.845110000000001 z" stroke-linecap="round" />
</g>
<g transform="matrix(1.3021021226 0 0 1.3021021226 340.5397398531 228.0748046765)" id="ZR6xpVelsGBEt-ZVydJH4"  >
<path style="stroke: rgb(233,35,146); stroke-width: 0; stroke-dasharray: none; stroke-linecap: butt; stroke-dashoffset: 0; stroke-linejoin: miter; stroke-miterlimit: 4; fill: rgb(216,216,205); fill-rule: nonzero; opacity: 1;"  transform=" translate(0.000005, 0.000005)" d="M -13.62625 -7.84512 C -13.62625 -11.037949999999999 -11.03795 -13.626249999999999 -7.8451200000000005 -13.626249999999999 L 7.845109999999999 -13.626249999999999 L 7.845109999999999 -13.626249999999999 C 11.037939999999999 -13.626249999999999 13.62624 -11.037949999999999 13.62624 -7.845119999999999 L 13.62624 7.845110000000001 L 13.62624 7.845110000000001 C 13.62624 11.03794 11.037939999999999 13.626240000000001 7.845109999999999 13.626240000000001 L -7.8451200000000005 13.626240000000001 L -7.8451200000000005 13.626240000000001 C -11.03795 13.626240000000001 -13.62625 11.03794 -13.62625 7.845110000000001 z" stroke-linecap="round" />
</g>
<g transform="matrix(1.3021021226 0 0 1.3021021226 339.6465497028 452.7577857665)" id="2t519ii3GS-zzrpzQcmed"  >
<path style="stroke: rgb(233,35,146); stroke-width: 0; stroke-dasharray: none; stroke-linecap: butt; stroke-dashoffset: 0; stroke-linejoin: miter; stroke-miterlimit: 4; fill: rgb(216,216,205); fill-rule: nonzero; opacity: 1;"  transform=" translate(0.000005, 0.000005)" d="M -13.62625 -7.84512 C -13.62625 -11.037949999999999 -11.03795 -13.626249999999999 -7.8451200000000005 -13.626249999999999 L 7.845109999999999 -13.626249999999999 L 7.845109999999999 -13.626249999999999 C 11.037939999999999 -13.626249999999999 13.62624 -11.037949999999999 13.62624 -7.845119999999999 L 13.62624 7.845110000000001 L 13.62624 7.845110000000001 C 13.62624 11.03794 11.037939999999999 13.626240000000001 7.845109999999999 13.626240000000001 L -7.8451200000000005 13.626240000000001 L -7.8451200000000005 13.626240000000001 C -11.03795 13.626240000000001 -13.62625 11.03794 -13.62625 7.845110000000001 z" stroke-linecap="round" />
</g>
<g transform="matrix(1.3021021226 0 0 1.3021021226 159.9040447961 452.7577857665)" id="3pHi-hXvsJmZCM9MI3Wny"  >
<path style="stroke: rgb(233,35,146); stroke-width: 0; stroke-dasharray: none; stroke-linecap: butt; stroke-dashoffset: 0; stroke-linejoin: miter; stroke-miterlimit: 4; fill: rgb(216,216,205); fill-rule: nonzero; opacity: 1;"  transform=" translate(0.000005, 0.000005)" d="M -13.62625 -7.84512 C -13.62625 -11.037949999999999 -11.03795 -13.626249999999999 -7.8451200000000005 -13.626249999999999 L 7.845109999999999 -13.626249999999999 L 7.845109999999999 -13.626249999999999 C 11.037939999999999 -13.626249999999999 13.62624 -11.037949999999999 13.62624 -7.845119999999999 L 13.62624 7.845110000000001 L 13.62624 7.845110000000001 C 13.62624 11.03794 11.037939999999999 13.626240000000001 7.845109999999999 13.626240000000001 L -7.8451200000000005 13.626240000000001 L -7.8451200000000005 13.626240000000001 C -11.03795 13.626240000000001 -13.62625 11.03794 -13.62625 7.845110000000001 z" stroke-linecap="round" />
</g>
<g transform="matrix(1 0 0 1 340.3164423155 349.5439377085)" id="JMePb8tY_iKUe-SPayC5U"  >
<path style="stroke: rgb(0,159,34); stroke-width: 0; stroke-dasharray: none; stroke-linecap: butt; stroke-dashoffset: 0; stroke-linejoin: miter; stroke-miterlimit: 4; fill: rgb(75,75,72); fill-rule: nonzero; opacity: 1;"  transform=" translate(-17.519465, -17.519465)" d="M 0 7.43288 C 0 3.3278099999999995 3.32781 0 7.43288 0 L 27.60605 0 L 27.60605 0 C 31.71112 0 35.03893 3.32781 35.03893 7.43288 L 35.03893 27.60605 L 35.03893 27.60605 C 35.03893 31.71112 31.71112 35.03893 27.60605 35.03893 L 7.432880000000001 35.03893 L 7.432880000000001 35.03893 C 3.3278100000000004 35.03893 8.881784197001252e-16 31.71112 8.881784197001252e-16 27.60605 z" stroke-linecap="round" />
</g>
</svg>